<svg width="52" height="52" viewBox="0 0 52 52" fill="none" xmlns="http://www.w3.org/2000/svg">
<g id="User icon">
<circle id="Ellipse 1" cx="26" cy="26" r="26" fill="white"/>
<path id="User icon_2" d="M36.6066 30.1611C34.9729 28.7997 33.0283 27.7918 30.9066 27.1817C33.179 25.8775 34.6719 23.6947 34.6719 21.2266C34.6719 17.2418 30.7817 14 26 14C21.2183 14 17.3281 17.2418 17.3281 21.2266C17.3281 23.6947 18.821 25.8775 21.0935 27.1817C18.9718 27.7918 17.0272 28.7997 15.3934 30.1611C12.5603 32.5221 11 35.6611 11 39H13.3438C13.3438 33.1844 19.0213 28.4531 26 28.4531C32.9787 28.4531 38.6562 33.1844 38.6562 39H41C41 35.6611 39.4397 32.5221 36.6066 30.1611ZM26 26.5C22.5107 26.5 19.6719 24.1344 19.6719 21.2266C19.6719 18.3187 22.5107 15.9531 26 15.9531C29.4893 15.9531 32.3281 18.3187 32.3281 21.2266C32.3281 24.1344 29.4893 26.5 26 26.5Z" fill="#2E266F"/>
<circle id="Ellipse 2" cx="43.5" cy="7.5" r="7.5" fill="#31A24C"/>
</g>
</svg>
